<svg xmlns="http://www.w3.org/2000/svg" xmlns:xlink="http://www.w3.org/1999/xlink" version="1.1" id="Layer_9" x="0px" y="0px" width="100px" height="100px" viewBox="0 0 100 100" enable-background="new 0 0 100 100" xml:space="preserve">
<path fill="#000000" d="M90.781,86.562h-6.763L58.1,5.764L58.345,5h-0.49H46.3h-9.779L10.356,86.562H9.219  c-2.331,0-4.219,1.89-4.219,4.22C5,93.112,6.889,95,9.219,95h25.312c2.331,0,4.219-1.888,4.219-4.219c0-2.33-1.888-4.22-4.219-4.22  h-2.353l4.961-15.468h30.364l4.961,15.468h-6.996c-2.33,0-4.22,1.89-4.22,4.22c0,2.331,1.89,4.219,4.22,4.219h25.312  C93.112,95,95,93.112,95,90.781C95,88.451,93.112,86.562,90.781,86.562z M39.849,62.656l12.472-38.884l12.475,38.884H39.849z"/>
</svg>