<svg xmlns:dc="http://purl.org/dc/elements/1.1/" xmlns:cc="http://creativecommons.org/ns#" xmlns:rdf="http://www.w3.org/1999/02/22-rdf-syntax-ns#" xmlns:svg="http://www.w3.org/2000/svg" xmlns="http://www.w3.org/2000/svg" xmlns:sodipodi="http://sodipodi.sourceforge.net/DTD/sodipodi-0.dtd" xmlns:inkscape="http://www.inkscape.org/namespaces/inkscape" version="1.1" x="0px" y="0px" width="100px" height="100px" viewBox="0 0 100 100" enable-background="new 0 0 100 100" xml:space="preserve" id="svg2" inkscape:version="0.48.4 r9939" sodipodi:docname="waiting.svg"><metadata id="metadata22"><rdf:RDF><cc:Work rdf:about=""><dc:format>image/svg+xml</dc:format><dc:type rdf:resource="http://purl.org/dc/dcmitype/StillImage"/><dc:title/></cc:Work></rdf:RDF></metadata><defs id="defs20">
	

		
		
		
		
		
	</defs><sodipodi:namedview pagecolor="#ffffff" bordercolor="#666666" borderopacity="1" objecttolerance="10" gridtolerance="10" guidetolerance="10" inkscape:pageopacity="0" inkscape:pageshadow="2" inkscape:window-width="640" inkscape:window-height="480" id="namedview18" showgrid="false" inkscape:zoom="2.36" inkscape:cx="50" inkscape:cy="50" inkscape:window-x="0" inkscape:window-y="0" inkscape:window-maximized="0" inkscape:current-layer="svg2"/>
<g id="Captions">
</g>
<path d="m 60.84339,40.209186 -8.578,8.576 -5.203,-5.202 c -0.854,-0.854 -2.237,-0.854 -3.092,0 -0.854,0.854 -0.854,2.238 0,3.093 l 6.749,6.748 c 0.427,0.428 0.986,0.642 1.546,0.642 0.56,0 1.119,-0.214 1.547,-0.642 l 10.124,-10.123 c 0.854,-0.854 0.854,-2.238 0,-3.093 -0.854,-0.854 -2.239,-0.854 -3.093,0.001 z" id="path8" inkscape:connector-curvature="0" inkscape:export-filename="C:\Users\Toshiba\SkyDrive\GlobeIn website PSD templates\icons\waiting.png" inkscape:export-xdpi="33.309387" inkscape:export-ydpi="33.309387"/><path d="m 53.36939,26.271186 c -12.664,0 -22.966,10.303 -22.966,22.966 0,12.664 10.302,22.967 22.966,22.967 12.662,0 22.967,-10.303 22.967,-22.967 0,-12.663 -10.305,-22.966 -22.967,-22.966 z m 0,39.371 c -9.047,0 -16.404,-7.358 -16.404,-16.405 0,-9.046 7.357,-16.404 16.404,-16.404 9.045,0 16.404,7.358 16.404,16.404 0,9.047 -7.359,16.405 -16.404,16.405 z" id="path10" inkscape:connector-curvature="0" inkscape:export-filename="C:\Users\Toshiba\SkyDrive\GlobeIn website PSD templates\icons\waiting.png" inkscape:export-xdpi="33.309387" inkscape:export-ydpi="33.309387"/>
</svg>